<?xml version="1.0" encoding="utf-8"?>
<!-- Generator: Adobe Illustrator 23.0.0, SVG Export Plug-In . SVG Version: 6.00 Build 0)  -->
<svg version="1.1" id="图层_1" xmlns="http://www.w3.org/2000/svg" xmlns:xlink="http://www.w3.org/1999/xlink" x="0px" y="0px"
	 viewBox="0 0 80 20" style="enable-background:new 0 0 80 20;" xml:space="preserve">
<style type="text/css">
	.st0{clip-path:url(#SVGID_2_);}
	.st1{fill:#555555;}
	.st2{fill:#E05D44;}
	.st3{fill:url(#SVGID_3_);}
	.st4{enable-background:new    ;}
	.st5{fill:#010101;}
	.st6{font-family:'Verdana';}
	.st7{font-size:11px;}
	.st8{fill:#FFFFFF;}
	.st9{fill:none;}
	.st10{font-size:110px;}
	.st11{font-family:'FZLTZHK--GBK1-0';}
	.st12{font-size:10px;}
</style>
<g>
	<defs>
		<path id="SVGID_1_" d="M3,0h74c1.7,0,3,1.3,3,3v14c0,1.7-1.3,3-3,3H3c-1.7,0-3-1.3-3-3V3C0,1.3,1.3,0,3,0z"/>
	</defs>
	<clipPath id="SVGID_2_">
		<use xlink:href="#SVGID_1_"  style="overflow:visible;"/>
	</clipPath>
	<g class="st0">
		<path class="st1" d="M0,0h29v20H0V0z"/>
		<path class="st2" d="M29,0h51v20H29V0z"/>
		
			<linearGradient id="SVGID_3_" gradientUnits="userSpaceOnUse" x1="-261.1875" y1="387.75" x2="-261.1875" y2="386.75" gradientTransform="matrix(80 0 0 -20 20935 7755)">
			<stop  offset="0" style="stop-color:#BBBBBB;stop-opacity:0.1"/>
			<stop  offset="1" style="stop-color:#000000;stop-opacity:0.1"/>
		</linearGradient>
		<path class="st3" d="M0,0h80v20H0V0z"/>
	</g>
</g>
<g>
	<g class="st4">
		<text transform="matrix(1 0 0 1 5.7461 15)" class="st5 st6 st7">link</text>
	</g>
	<text transform="matrix(1 0 0 1 5.7461 14)" class="st8 st6 st7">link</text>
	<g class="st4">
		<polygon class="st9" points="33.2,15 33.2,15 33.2,15 33.2,15 		"/>
		<text transform="matrix(0 0 0 0 0 792)" class="st5 st6 st10">996.icu</text>
	</g>
	<polygon class="st9" points="33.2,14 33.2,14 33.2,14 33.2,14 	"/>
	<text transform="matrix(0 0 0 0 0 792)" class="st8 st6 st10">996.icu</text>
</g>
<text transform="matrix(1 0 0 1 32.1149 13.5173)" class="st8 st11 st12">996.psd</text>
</svg>
